<svg width="49" height="236" viewBox="0 0 49 236" fill="none" xmlns="http://www.w3.org/2000/svg">
<path d="M11.1562 19.2656V19.2188L11.0391 19.0547L10.6406 18.8203L10.4062 18.5156H10.0547C9.75781 18.6406 9.42578 18.7227 9.05859 18.7617C8.69141 18.8008 8.3125 18.8203 7.92188 18.8203L7.00781 18.5156C6.89844 18.375 6.79297 18.2461 6.69141 18.1289C6.58984 18.0117 6.53906 17.8594 6.53906 17.6719L6.72656 17.3203L6.53906 17.2031C6.35156 17.0781 6.23828 16.9414 6.19922 16.793C6.16016 16.6445 6.15625 16.4688 6.1875 16.2656C6.26562 16.0469 6.31641 15.8125 6.33984 15.5625C6.36328 15.3125 6.375 15.0469 6.375 14.7656L5.85938 13.5H5.90625L7.47656 14.5547C7.77344 14.3984 8.07812 14.2539 8.39062 14.1211C8.70312 13.9883 9.03125 13.8984 9.375 13.8516L10.0078 14.1328L10.125 14.5547H10.2422V14.8828L9.30469 15.3047L9.09375 15.5156L8.97656 15.7031L8.39062 15.9375L8.34375 16.0547L7.64062 16.4531L7.59375 17.7188H7.28906L7.05469 17.5547V17.6016H6.9375V17.8828L8.625 17.9531L10.125 17.8359L10.1719 17.25H10.2891L10.6875 17.3203L10.7578 15.8203L10.4766 13.1719C10.1953 13.125 9.91016 13.1016 9.62109 13.1016C9.33203 13.1016 9.07812 13.0469 8.85938 12.9375C9.15625 12.8125 9.46094 12.6641 9.77344 12.4922C10.0859 12.3203 10.3906 12.1797 10.6875 12.0703L11.9062 12.5859L12.0938 13.8047C11.8906 14.6016 11.75 15.4453 11.6719 16.3359C11.5938 17.2266 11.5547 18.1094 11.5547 18.9844H11.4375L11.3906 19.2188L11.1562 19.2656ZM7.75781 16.2656V16.2188C7.91406 16.0312 8.06641 15.832 8.21484 15.6211C8.36328 15.4102 8.46094 15.1875 8.50781 14.9531L7.47656 14.8359V15C7.55469 15.2031 7.59375 15.4297 7.59375 15.6797C7.59375 15.9297 7.625 16.1484 7.6875 16.3359L7.75781 16.2656ZM7.17188 11.4375L6.9375 10.8516C6.375 10.8984 5.89062 10.7578 5.48438 10.4297C5.07812 10.1016 4.67969 9.74219 4.28906 9.35156H4.40625L5.90625 9.63281L6.09375 9.58594L6.30469 9.86719L6.65625 10.0547L6.77344 10.3359H6.9375L7.75781 9.98438V9.51562H7.64062L6.9375 9.82031C6.79688 9.66406 6.6875 9.5 6.60938 9.32812C6.53125 9.15625 6.49219 8.96875 6.49219 8.76562L6.65625 8.71875L6.77344 8.76562V8.83594L6.72656 9.11719C6.80469 9.19531 6.89062 9.23438 6.98438 9.23438C7.07812 9.23438 7.16406 9.23438 7.24219 9.23438L7.92188 8.76562V8.13281C7.8125 8.17969 7.71094 8.16406 7.61719 8.08594C7.52344 8.00781 7.4375 7.92969 7.35938 7.85156C7.9375 7.61719 8.51172 7.39453 9.08203 7.18359C9.65234 6.97266 10.2266 6.78906 10.8047 6.63281C11.0391 6.71094 11.2734 6.78125 11.5078 6.84375C11.7422 6.90625 11.9531 7.01562 12.1406 7.17188L12.1875 7.73438C11.9688 8.07812 11.7891 8.43359 11.6484 8.80078C11.5078 9.16797 11.3281 9.52344 11.1094 9.86719H10.9922C10.9922 10.0234 10.9531 10.1602 10.875 10.2773C10.7969 10.3945 10.7344 10.5078 10.6875 10.6172L10.4766 10.6875L10.2422 10.6172C9.69531 10.7422 9.18359 10.8906 8.70703 11.0625C8.23047 11.2344 7.71875 11.3594 7.17188 11.4375ZM9.72656 9.9375V9.75L9.65625 9.46875L10.125 9.42188C10.2031 9.10938 10.2812 8.78906 10.3594 8.46094C10.4375 8.13281 10.4531 7.79688 10.4062 7.45312H10.1719L8.67188 7.96875V8.08594L8.74219 8.25H8.97656C9.08594 8.17188 9.19922 8.125 9.31641 8.10938C9.43359 8.09375 9.57031 8.08594 9.72656 8.08594C9.80469 8.11719 9.87891 8.15234 9.94922 8.19141C10.0195 8.23047 10.0391 8.3125 10.0078 8.4375L9.84375 8.76562H9.72656L9.65625 8.95312H9.53906V9.07031L8.67188 10.0547H8.97656L9.72656 9.9375ZM3.02344 8.95312V8.88281C3.86719 7.66406 4.59766 6.39062 5.21484 5.0625C5.83203 3.73438 6.375 2.375 6.84375 0.984375L6.60938 0.46875L6.65625 0.234375H6.72656V0.351562H6.9375L7.52344 0.1875L8.34375 0.46875L8.50781 1.05469C8.82031 1.13281 9.10156 1.24609 9.35156 1.39453C9.60156 1.54297 9.83594 1.75 10.0547 2.01562L10.6406 2.67188V2.76562L10.875 2.88281L11.2266 3.1875C11.7578 3.5625 12.293 3.92578 12.832 4.27734C13.3711 4.62891 13.9297 4.95312 14.5078 5.25C15.3516 5.59375 16.2148 5.92188 17.0977 6.23438C17.9805 6.54688 18.8125 6.96875 19.5938 7.5L19.8047 7.85156H19.5938L18.4219 7.73438L18.375 7.80469C16.4844 7.72656 14.7812 7.15625 13.2656 6.09375C11.75 5.03125 10.3203 3.85156 8.97656 2.55469L8.39062 2.08594H8.22656C8.07031 2.11719 7.91406 2.13281 7.75781 2.13281C7.60156 2.13281 7.48438 2.21094 7.40625 2.36719C7.09375 3.02344 6.77734 3.66797 6.45703 4.30078C6.13672 4.93359 5.79688 5.5625 5.4375 6.1875L4.80469 6.98438V7.10156C4.53906 7.41406 4.26172 7.73438 3.97266 8.0625C3.68359 8.39062 3.36719 8.6875 3.02344 8.95312ZM6.42188 6.51562L6.1875 6.35156L6.02344 6.07031H6.09375L6.42188 6.11719L8.03906 5.4375L8.10938 5.13281C8.26562 5.02344 8.42969 4.94922 8.60156 4.91016C8.77344 4.87109 8.95312 4.875 9.14062 4.92188L9.72656 5.01562V5.36719H9.65625V5.48438L9.72656 5.60156C9.22656 5.83594 8.69531 6.03906 8.13281 6.21094C7.57031 6.38281 7 6.48438 6.42188 6.51562Z" fill="white"/>
<path d="M0.984375 50.7969L0.679688 50.6562V50.4922L1.80469 48.9453C2.19531 48.4609 2.57031 47.9609 2.92969 47.4453C3.28906 46.9297 3.64062 46.4141 3.98438 45.8984L4.66406 44.5859H4.75781C5.13281 43.8672 5.49609 43.1367 5.84766 42.3945C6.19922 41.6523 6.47656 40.8828 6.67969 40.0859H6.25781L5.64844 40.25L5.48438 40.5078L5.01562 40.8125C4.92188 41.0312 4.78516 41.207 4.60547 41.3398C4.42578 41.4727 4.25 41.6094 4.07812 41.75H3.9375C3.90625 41.6406 3.85547 41.543 3.78516 41.457C3.71484 41.3711 3.69531 41.2812 3.72656 41.1875C3.92969 40.875 4.10156 40.5469 4.24219 40.2031C4.38281 39.8594 4.5 39.4922 4.59375 39.1016H4.71094C4.71094 38.8359 4.76953 38.5898 4.88672 38.3633C5.00391 38.1367 5.08594 37.9062 5.13281 37.6719L4.28906 37.4609C4.19531 37.5547 4.07812 37.6211 3.9375 37.6602C3.79688 37.6992 3.65625 37.75 3.51562 37.8125V37.7656C3.89062 37.0781 4.23438 36.3711 4.54688 35.6445C4.85938 34.918 5.11719 34.1797 5.32031 33.4297H5.64844C5.91406 33.4922 6.17578 33.5742 6.43359 33.6758C6.69141 33.7773 6.94531 33.8984 7.19531 34.0391V34.2969H7.28906L7.54688 34.9297L7.40625 35.1406L6.89062 35.2344C6.75 35.2344 6.61719 35.2773 6.49219 35.3633C6.36719 35.4492 6.23438 35.5078 6.09375 35.5391L5.90625 35.8438L5.13281 36.4297L4.5 37.3438H4.59375C4.78125 37.1719 4.97656 37.0547 5.17969 36.9922C5.38281 36.9297 5.60156 36.9141 5.83594 36.9453L6.5625 37.25C6.67188 37.4219 6.77734 37.6016 6.87891 37.7891C6.98047 37.9766 7.03125 38.1953 7.03125 38.4453L6.5625 39.4297H6.89062L6.98438 39.3594C7.1875 39.4062 7.38672 39.4805 7.58203 39.582C7.77734 39.6836 7.96094 39.7891 8.13281 39.8984L8.57812 40.5547V40.7656L8.0625 41.5391L7.75781 41.8438H7.66406C7.58594 42.0625 7.48047 42.25 7.34766 42.4062C7.21484 42.5625 7.10938 42.7422 7.03125 42.9453L6.89062 42.9922C6.71875 43.3359 6.51953 43.6641 6.29297 43.9766C6.06641 44.2891 5.88281 44.6172 5.74219 44.9609H5.64844C5.30469 45.6484 4.91406 46.3203 4.47656 46.9766C4.03906 47.6328 3.57812 48.2891 3.09375 48.9453H3L2.83594 49.25L2.69531 49.2969L2.4375 49.7656L2.27344 49.9297L1.92188 50.2812H1.80469L1.75781 50.4453C1.61719 50.5078 1.48828 50.582 1.37109 50.668C1.25391 50.7539 1.125 50.7969 0.984375 50.7969ZM19.1484 49.6016C18.8672 49.3359 18.5625 49.0977 18.2344 48.8867C17.9062 48.6758 17.625 48.3984 17.3906 48.0547H17.4375V47.9141L17.2266 47.6562L17.6484 47.5859C17.9922 47.7266 18.3281 47.8594 18.6562 47.9844C18.9844 48.1094 19.3203 48.2344 19.6641 48.3594L19.9219 48.6406H20.0625V48.7344L19.8047 48.8281L19.7109 49.2969L19.875 49.3438V49.5078H19.5938L19.4062 49.4141V49.5547L19.1484 49.6016ZM11.3203 48.8984L11.2266 48.8281V48.7344C11.3984 48.3906 11.5 48.0117 11.5312 47.5977C11.5625 47.1836 11.6016 46.7656 11.6484 46.3438H11.7422L11.9531 46.4141L12.2578 46.2969L13.2891 46.6016V46.8125L13.4531 46.8594V47.1406H13.3359L13.2891 47.2812L12.7734 47.5859V47.7031H12.6797L12.5156 47.9609L12.375 48.0078L12.3047 48.2188H12.2109L12 48.4297L11.5312 48.8984H11.3203ZM17.6953 46.4141L17.2266 46.1562V46.0391L16.875 45.8281V45.7344L16.5 45.6406L16.4531 45.4297H16.2422L16.0312 44.9609L15.4219 44.8438C15.25 44.8906 15.0859 44.9453 14.9297 45.0078C14.7734 45.0703 14.625 45.1406 14.4844 45.2188L14.1797 45.1719L12.0938 45.9453L11.6953 45.7812V45.6875L11.4375 45.6406L11.0625 45.2188L10.7578 44.75H10.6641V44.6562L10.7109 44.4453L10.5469 44.0703L10.875 43.8125C10.9688 43.3281 11.043 42.8359 11.0977 42.3359C11.1523 41.8359 11.1797 41.3281 11.1797 40.8125L10.6641 39.9922H10.7109C10.8828 39.9922 11.0391 40.0352 11.1797 40.1211C11.3203 40.207 11.4531 40.2812 11.5781 40.3438L12 40.7656L12.0469 40.9297H12.2109C12.6641 40.6484 13.1289 40.4297 13.6055 40.2734C14.082 40.1172 14.6016 40.0547 15.1641 40.0859L15.7734 40.3438L15.8203 40.7188L15.3047 41.2344L13.7578 42.1719L13.7109 42.3594L13.9688 42.4297L14.5781 42.2188L15.375 42.5703L15.4219 42.8281L15.3047 42.8984L15.0938 43.3438L15.6797 43.6719L15.7266 43.8125L15.8906 43.9297L16.2891 44.2344L16.5469 44.5859L16.5938 44.4453L16.8047 44.2812V42.4766L16.5 38.6562H16.2422C15.6953 38.7812 15.1797 38.9766 14.6953 39.2422C14.2109 39.5078 13.7109 39.7422 13.1953 39.9453L13.1484 39.6406L12.9375 39.5703L12.8203 39.2656H12.7266L12.4688 38.7031C12.8125 38.7344 13.1211 38.6641 13.3945 38.4922C13.668 38.3203 13.9609 38.2031 14.2734 38.1406L14.4375 38.1875C14.75 38.0469 15.0781 37.9258 15.4219 37.8242C15.7656 37.7227 16.1094 37.6484 16.4531 37.6016V37.5078H16.875L18.5156 38.2344V38.75C18.3438 39.0312 18.2773 39.3516 18.3164 39.7109C18.3555 40.0703 18.3359 40.4062 18.2578 40.7188L18.3047 40.7656V43.0391L18.375 43.25C18.3281 43.7656 18.2969 44.293 18.2812 44.832C18.2656 45.3711 18.1406 45.8594 17.9062 46.2969L17.6953 46.4141ZM12.0938 44.3984L12.7734 43.6719V43.5078C12.6328 43.3672 12.5312 43.2109 12.4688 43.0391C12.4062 42.8672 12.3047 42.7109 12.1641 42.5703H12.0469L12 43.0391L12.0469 43.2031L11.9531 44.4453H12.0469L12.0938 44.3984ZM14.5781 43.9766L14.8359 43.9297V43.8125H15.1641V43.7188L15 43.6016V43.5547H14.7422L14.3203 43.9297V44.0234H14.5312L14.5781 43.9766ZM12.2109 42.4297L12.5625 42.3125V42.1719L12.4688 41.8438L12.0938 41.7969V42.4297L12.1641 42.4766L12.2109 42.4297ZM13.2422 41.7969L13.5469 41.2812H13.2891L13.1953 41.3281V41.3984H13.0781V41.4922H12.9844L12.9375 41.7969L13.1953 41.8438L13.2422 41.7969ZM11.3906 38.6562V38.5391C11.7344 38.0547 12.0273 37.5625 12.2695 37.0625C12.5117 36.5625 12.75 36.0547 12.9844 35.5391L12.7734 35.1875C13.1484 35.2188 13.4844 35.1562 13.7812 35C14.0781 34.8438 14.3438 34.6484 14.5781 34.4141H14.3203C13.8359 34.5078 13.3711 34.668 12.9258 34.8945C12.4805 35.1211 12 35.2344 11.4844 35.2344C11.1719 35.1719 10.8789 35.0781 10.6055 34.9531C10.332 34.8281 10.0938 34.6484 9.89062 34.4141C10.9219 34.1953 11.9531 33.9492 12.9844 33.6758C14.0156 33.4023 15.0312 33.1484 16.0312 32.9141L16.1953 32.7031H16.4062C16.7188 32.875 17.0547 33.0195 17.4141 33.1367C17.7734 33.2539 18.1094 33.3984 18.4219 33.5703L18.5625 33.8984L18.375 34.1562H18.2578L18.2109 34.3438H17.7422L16.5 34.1562C16.125 34.4219 15.7227 34.6172 15.293 34.7422C14.8633 34.8672 14.4375 35 14.0156 35.1406L13.9688 35.2812L14.8359 35.75L14.9062 36.3125L14.6484 36.4766V36.5703C14.2266 36.7891 13.8438 37.043 13.5 37.332C13.1562 37.6211 12.7969 37.8906 12.4219 38.1406L12.375 38.2344H12.2578V38.3984L11.3906 38.6562Z" fill="white"/>
<path d="M2.4375 74.8281L1.66406 74.2188C1.36719 73.9062 1.08203 73.5977 0.808594 73.293C0.535156 72.9883 0.289062 72.6797 0.0703125 72.3672V72.2734L0.164062 71.6875H0.210938L0.28125 71.5234L0.492188 71.4766L1.45312 71.8047C1.78125 71.7578 2.125 71.7109 2.48438 71.6641C2.84375 71.6172 3.17188 71.5078 3.46875 71.3359L3.75 71.4062L5.90625 70.4922L6.02344 70.3281L6.86719 69.5312C6.97656 69.4531 7.06641 69.3711 7.13672 69.2852C7.20703 69.1992 7.32031 69.1797 7.47656 69.2266L7.52344 69.4141L7.80469 69.5312V69.6484C8.17969 69.8984 8.58984 70.0898 9.03516 70.2227C9.48047 70.3555 9.94531 70.4219 10.4297 70.4219L13.3828 70.1406L13.6641 69.7891C13.7734 69.8359 13.8633 69.8438 13.9336 69.8125C14.0039 69.7812 14.0391 69.7031 14.0391 69.5781H14.5547C15.4766 69.9219 16.4336 70.207 17.4258 70.4336C18.418 70.6602 19.3594 70.9609 20.25 71.3359V71.5938L20.4844 71.8047H20.4375L20.1328 72.9062L19.8047 73.2344H19.6406L18.5859 73.0469L18.0703 73.1641L17.9062 73.1172V73.3516H17.7422C16.8828 73.1484 15.9961 72.9922 15.082 72.8828C14.168 72.7734 13.25 72.7031 12.3281 72.6719L12.1172 72.7188L11.5547 72.6719L11.3203 72.7188L10.9922 72.6719C9.57031 72.9688 8.13672 73.2812 6.69141 73.6094C5.24609 73.9375 3.82812 74.3438 2.4375 74.8281Z" fill="white"/>
<path d="M4.45312 113.812L3.82031 113.508L3.30469 113.203C3.24219 112.922 3.21094 112.621 3.21094 112.301C3.21094 111.98 3.19531 111.68 3.16406 111.398V109.172L3.30469 106.898L3.1875 105.586L3.375 105.539L3.72656 105.633C4.08594 105.445 4.46094 105.281 4.85156 105.141C5.24219 105 5.64844 104.922 6.07031 104.906C6.13281 104.688 6.16406 104.445 6.16406 104.18C6.16406 103.914 6.16406 103.656 6.16406 103.406H6.07031L4.64062 104.039V104.133L3.84375 104.672L3.79688 104.859H3.58594L3.11719 103.898L3.16406 103.805H3.25781L3.32812 103.641C3.46875 103.672 3.57422 103.645 3.64453 103.559C3.71484 103.473 3.80469 103.398 3.91406 103.336C4.10156 103.023 4.32422 102.719 4.58203 102.422C4.83984 102.125 5.02344 101.797 5.13281 101.438L4.28906 100.641H4.07812L4.10156 100.758H4.00781L3.60938 101.461H3.49219L3.1875 102.164H3.07031L2.85938 102.82L2.76562 102.797C2.54688 103.172 2.32031 103.547 2.08594 103.922C1.85156 104.297 1.60938 104.688 1.35938 105.094L1.05469 105.422H0.890625V105.211C1.28125 104.148 1.69922 103.105 2.14453 102.082C2.58984 101.059 2.94531 100.008 3.21094 98.9297L3.09375 98.6719L3.16406 98.5547H3.25781V98.4609L3.46875 98.25L3.53906 97.7109L3.49219 97.5469H3.60938V97.4531L3.51562 97.2891L3.84375 97.2188L3.86719 96.1406L3.82031 96.0469H4.17188L5.39062 96.8906L5.48438 97.1484H5.57812L5.76562 97.7344L5.92969 97.9453C6.35156 98.0234 6.75391 98.1445 7.13672 98.3086C7.51953 98.4727 7.89062 98.7109 8.25 99.0234L8.34375 99.4453L8.22656 99.6094L8.13281 99.6328V99.7969L7.59375 99.7734C7.42188 99.6641 7.23047 99.5625 7.01953 99.4688C6.80859 99.375 6.57812 99.3516 6.32812 99.3984C6.1875 99.5078 6.02734 99.5586 5.84766 99.5508C5.66797 99.543 5.49219 99.5391 5.32031 99.5391V99.4922L6.28125 98.7188V98.5547L5.85938 98.3203L5.48438 98.4141L4.57031 99.9141L4.66406 100.266L4.54688 100.594C4.875 100.625 5.21875 100.664 5.57812 100.711C5.9375 100.758 6.24219 100.875 6.49219 101.062V101.18L6.30469 101.508L5.55469 101.766L5.41406 102.023L4.5 102.75H4.40625L3.89062 103.664H4.00781L5.97656 102.68L6.02344 102.422L6.9375 102.234C7.26562 102.359 7.62109 102.48 8.00391 102.598C8.38672 102.715 8.73438 102.883 9.04688 103.102V103.195L8.67188 103.266L8.39062 103.688L8.13281 103.875C7.88281 104.484 7.66406 105.125 7.47656 105.797C7.28906 106.469 7.01562 107.078 6.65625 107.625L6.21094 107.859L5.83594 107.414H5.71875L5.46094 107.883C5.32031 107.992 5.17969 108.094 5.03906 108.188C4.89844 108.281 4.75781 108.352 4.61719 108.398C4.46094 108.836 4.34766 109.281 4.27734 109.734C4.20703 110.188 4.17188 110.664 4.17188 111.164C4.23438 111.273 4.26562 111.398 4.26562 111.539C4.26562 111.68 4.32031 111.766 4.42969 111.797L4.85156 111.188L4.96875 111.211V111.117H5.0625C5.25 110.82 5.46484 110.555 5.70703 110.32C5.94922 110.086 6.07812 109.789 6.09375 109.43L5.85938 108.984L5.69531 108.891L6.1875 108.797C6.46875 108.828 6.73828 108.898 6.99609 109.008C7.25391 109.117 7.5 109.258 7.73438 109.43L7.78125 109.594L7.94531 109.711C8.03906 109.82 8.12109 109.934 8.19141 110.051C8.26172 110.168 8.29688 110.297 8.29688 110.438L8.08594 110.461V110.672L8.03906 110.648L8.01562 110.859H7.52344C7.36719 110.828 7.19922 110.766 7.01953 110.672C6.83984 110.578 6.67969 110.461 6.53906 110.32L6.28125 110.133C5.95312 110.68 5.6875 111.25 5.48438 111.844C5.28125 112.438 5.07812 113.031 4.875 113.625L4.45312 113.812ZM20.1562 113.883C19.2344 113.414 18.2734 113.027 17.2734 112.723C16.2734 112.418 15.3906 111.875 14.625 111.094C14.2344 110.688 13.9258 110.242 13.6992 109.758C13.4727 109.273 13.2422 108.812 13.0078 108.375H12.8672C12.7109 108.625 12.582 108.867 12.4805 109.102C12.3789 109.336 12.25 109.578 12.0938 109.828H11.9766L11.7656 110.25H11.6719L11.3203 110.859L11.1094 110.883L11.0391 111.164H10.9219V111.258H10.8047L10.6641 111.469L9.84375 112.312C9.70312 112.391 9.55859 112.48 9.41016 112.582C9.26172 112.684 9.10156 112.727 8.92969 112.711V112.664L9.86719 111.797L10.6641 110.719C11.1953 109.688 11.5 108.566 11.5781 107.355C11.6562 106.145 11.7031 104.914 11.7188 103.664C11.6094 103.57 11.5078 103.465 11.4141 103.348C11.3203 103.23 11.2891 103.109 11.3203 102.984C11.4922 102.922 11.6562 102.867 11.8125 102.82C11.9688 102.773 12.1562 102.758 12.375 102.773L13.2188 102.984L13.4766 103.242L13.6406 104.109H13.7578C14.1172 103.641 14.4102 103.137 14.6367 102.598C14.8633 102.059 15.0312 101.484 15.1406 100.875L14.8828 100.898C14.4609 100.992 14.0352 101.117 13.6055 101.273C13.1758 101.43 12.75 101.555 12.3281 101.648L12.0703 101.062H11.9766C11.8203 101.344 11.6289 101.598 11.4023 101.824C11.1758 102.051 10.9922 102.305 10.8516 102.586L10.5938 102.656V102.492C10.7656 102.102 10.8906 101.711 10.9688 101.32C11.0469 100.93 11.1172 100.523 11.1797 100.102L10.6172 99.1641L10.7109 99.0469H10.8984C11.0547 98.7969 11.1641 98.5273 11.2266 98.2383C11.2891 97.9492 11.2891 97.625 11.2266 97.2656L11.1562 96.7734L11.4609 96.75L12.0938 96.9375L12.5859 96.9141C12.7266 96.9766 12.8789 97.0156 13.043 97.0312C13.207 97.0469 13.3672 97.1328 13.5234 97.2891L13.6406 97.6406L12.9844 99.2812H12.8672L12.4688 100.242L12.7031 100.5H12.8438C13.3125 100.297 13.7891 100.113 14.2734 99.9492C14.7578 99.7852 15.2422 99.6406 15.7266 99.5156L15.7734 99.4219C15.9609 99.4219 16.125 99.3867 16.2656 99.3164C16.4062 99.2461 16.5625 99.2266 16.7344 99.2578L17.4141 99.5156V99.6328L18.3281 99.9609L18.7266 100.336L18.1406 100.547L18.1172 100.664L17.3672 100.945L17.1562 101.109L16.9219 101.484L16.7578 101.531C16.7266 101.672 16.668 101.805 16.582 101.93C16.4961 102.055 16.3828 102.172 16.2422 102.281L16.0547 102.328C16.0703 102.5 16.0234 102.641 15.9141 102.75C15.8047 102.859 15.7031 102.984 15.6094 103.125L15.4922 103.102L15.2812 103.312L15.0938 103.523L14.9531 103.641V103.758L14.7891 103.805V103.852L14.5781 103.922V104.016L13.7812 104.625L13.6172 105.984L14.0859 106.477V106.57L14.2266 106.688C14.6016 107.328 14.9336 107.984 15.2227 108.656C15.5117 109.328 15.9141 109.961 16.4297 110.555C17.1016 110.992 17.7656 111.414 18.4219 111.82C19.0781 112.227 19.7266 112.695 20.3672 113.227L20.4141 113.438H20.5312V113.648L20.4141 113.812L20.1562 113.883ZM4.45312 106.711V106.664L4.64062 106.242L4.05469 106.031L4.00781 106.195L4.40625 106.781L4.45312 106.711ZM5.90625 106.453V106.359L5.95312 106.031H5.8125L5.60156 106.148L5.53125 106.453H5.90625Z" fill="white"/>
<path d="M1.89844 144.547L1.3125 143.703L1.26562 142.93H1.3125L1.35938 142.719L1.73438 142.648L2.03906 142.719C2.92969 142.141 3.82422 141.555 4.72266 140.961C5.62109 140.367 6.49219 139.734 7.33594 139.062L8.34375 138.008H7.92188L6.91406 138.055L6.44531 137.797C6.25781 137.609 6.11328 137.41 6.01172 137.199C5.91016 136.988 5.84375 136.781 5.8125 136.578H6.02344L6.375 136.742C7.07812 136.523 7.79297 136.301 8.51953 136.074C9.24609 135.848 10 135.695 10.7812 135.617L10.9219 135.359H11.0859C11.4766 135.438 11.8281 135.582 12.1406 135.793C12.4531 136.004 12.7891 136.156 13.1484 136.25V136.367C13.2578 136.336 13.3477 136.355 13.418 136.426C13.4883 136.496 13.5547 136.547 13.6172 136.578L13.7812 137.164L13.6172 137.469L13.3594 137.516C13.3906 137.656 13.3711 137.773 13.3008 137.867C13.2305 137.961 13.1641 138.039 13.1016 138.102L12.6797 138.172L12.1406 137.961H12.0469L11.625 138.055L11.25 138.008C10.9688 138.07 10.6953 138.164 10.4297 138.289C10.1641 138.414 9.90625 138.547 9.65625 138.688V138.805C8.45312 139.539 7.24609 140.23 6.03516 140.879C4.82422 141.527 3.58594 142.141 2.32031 142.719V142.93H2.41406C4.32031 142.398 6.24219 141.887 8.17969 141.395C10.1172 140.902 12.0938 140.633 14.1094 140.586L14.2031 140.656L14.4141 140.586L14.9531 140.656L15.0938 140.445L15.4219 140.375C16.0938 140.656 16.7656 140.914 17.4375 141.148C18.1094 141.383 18.7578 141.656 19.3828 141.969L19.4297 142.344L19.2891 142.391L19.1719 142.648L18.75 142.766L18.4453 142.648V142.812L19.125 143.023L19.2891 142.977L19.3359 143.023H19.0078V143.234L19.0781 143.492H18.9141V143.609L18.9609 143.656L18.7031 143.703L18.4922 143.656L18.2344 143.773L17.2734 143.445V143.352C16.3984 143.102 15.5117 142.871 14.6133 142.66C13.7148 142.449 12.7656 142.359 11.7656 142.391C10.4375 142.422 9.18359 142.676 8.00391 143.152C6.82422 143.629 5.57812 143.953 4.26562 144.125V144.195C3.875 144.227 3.47656 144.258 3.07031 144.289C2.66406 144.32 2.27344 144.406 1.89844 144.547ZM8.64844 134.398L7.28906 134.305L7.21875 134.352L6.07031 133.977L6.02344 133.836L5.85938 133.719L5.53125 133.297H5.4375L5.27344 133.133L4.64062 132.336H4.73438V132.242L4.59375 131.984L4.38281 131.82H4.59375L5.32031 131.984C6.10156 131.938 6.82812 131.801 7.5 131.574C8.17188 131.348 8.78906 130.969 9.35156 130.438L9.39844 130.344H9.77344C10.0859 130.516 10.4023 130.691 10.7227 130.871C11.043 131.051 11.3906 131.141 11.7656 131.141L11.9766 131.07V130.977L12.6797 130.93C12.9609 131.07 13.25 131.211 13.5469 131.352C13.8438 131.492 14.1484 131.594 14.4609 131.656V131.703L14.3672 131.914L14.1562 131.984V132.078L13.9922 132.125L13.9453 132.453H13.9922H13.9453V132.547L13.9922 132.758L13.8984 132.969L12.1875 133.297V133.344C11.9531 133.344 11.7383 133.398 11.543 133.508C11.3477 133.617 11.1406 133.688 10.9219 133.719C10.8906 133.797 10.8242 133.844 10.7227 133.859C10.6211 133.875 10.5312 133.898 10.4531 133.93C10.1719 134.07 9.89062 134.203 9.60938 134.328C9.32812 134.453 9.00781 134.477 8.64844 134.398Z" fill="white"/>
<path d="M14.1328 178.516L13.7578 178.352L13.5938 178.141H13.4297V178.211H13.3359L12.75 177.766V177.672H12.6328L12 176.922L11.6719 176.805C11.2031 176.945 10.7305 177.051 10.2539 177.121C9.77734 177.191 9.28906 177.25 8.78906 177.297V177.391H8.41406L7.875 176.805V176.969L8.17969 177.602C8.11719 177.68 8.03906 177.738 7.94531 177.777C7.85156 177.816 7.75781 177.836 7.66406 177.836L6.75 177.508L6.58594 177.555L6.30469 177.391C6.16406 177.109 5.96875 176.844 5.71875 176.594C5.46875 176.344 5.36719 176.039 5.41406 175.68C5.58594 175.539 5.66406 175.352 5.64844 175.117C5.63281 174.883 5.625 174.664 5.625 174.461C5.57812 173.961 5.53125 173.461 5.48438 172.961C5.4375 172.461 5.26562 172.008 4.96875 171.602C4.82812 171.57 4.6875 171.52 4.54688 171.449C4.40625 171.379 4.28125 171.273 4.17188 171.133C4.03125 170.945 3.93359 170.738 3.87891 170.512C3.82422 170.285 3.8125 170.047 3.84375 169.797L4.33594 169.094L5.13281 168.461V168.344L5.625 168.016V167.922C5.98438 167.672 6.27734 167.375 6.50391 167.031C6.73047 166.688 6.96875 166.359 7.21875 166.047V165.883H6.96094C6.67969 165.945 6.39453 165.988 6.10547 166.012C5.81641 166.035 5.50781 166.047 5.17969 166.047L4.66406 165.977V166.094L4.125 166.211C3.98438 166.055 3.8125 165.977 3.60938 165.977C3.40625 165.977 3.21875 165.945 3.04688 165.883L2.83594 165.672H2.71875V165.555L2.50781 165.344L1.54688 164.383L1.42969 164.008L2.03906 163.844L2.78906 163.961C3.49219 163.742 4.18359 163.516 4.86328 163.281C5.54297 163.047 6.22656 162.805 6.91406 162.555L6.96094 162.461C7.38281 162.273 7.80859 162.062 8.23828 161.828C8.66797 161.594 9.10156 161.391 9.53906 161.219L10.125 161.477L10.3359 161.758C10.5859 161.93 10.8633 162.07 11.168 162.18C11.4727 162.289 11.7812 162.359 12.0938 162.391C12.4844 162.328 12.8594 162.262 13.2188 162.191C13.5781 162.121 13.9219 161.992 14.25 161.805L14.2969 161.594C14.4688 161.625 14.6367 161.605 14.8008 161.535C14.9648 161.465 15.1172 161.398 15.2578 161.336L15.5391 161.594C15.7109 161.625 15.8672 161.723 16.0078 161.887C16.1484 162.051 16.3281 162.133 16.5469 162.133V162.227L18.2578 162.883L18.3047 163.094L18.5859 163.211L19.0078 164.102L18.9609 164.266L18 164.336C17.5312 164.18 17.082 164.016 16.6523 163.844C16.2227 163.672 15.7734 163.508 15.3047 163.352L14.4141 163.469L14.25 163.422L13.2891 163.727C13.2109 163.914 13.0742 164 12.8789 163.984C12.6836 163.969 12.5156 163.977 12.375 164.008L12.2109 163.961L11.5078 164.172L11.4141 164.008H11.1328C10.8203 164.148 10.5 164.246 10.1719 164.301C9.84375 164.355 9.53906 164.492 9.25781 164.711L9.21094 164.852L10.0547 165.672C10.1016 165.844 10.168 166.012 10.2539 166.176C10.3398 166.34 10.3672 166.523 10.3359 166.727C9.50781 167.023 8.69141 167.305 7.88672 167.57C7.08203 167.836 6.28906 168.133 5.50781 168.461V168.555L4.80469 168.883C4.74219 169.023 4.70312 169.176 4.6875 169.34C4.67188 169.504 4.64062 169.656 4.59375 169.797L4.71094 170.336H4.80469V170.43C5.13281 170.57 5.44922 170.73 5.75391 170.91C6.05859 171.09 6.35156 171.289 6.63281 171.508L6.91406 171.836H7.05469C7.46094 171.508 7.88672 171.262 8.33203 171.098C8.77734 170.934 9.25 170.82 9.75 170.758H11.9297L12.9141 171.016V170.43C12.8672 170.148 12.8281 169.863 12.7969 169.574C12.7656 169.285 12.7109 169.016 12.6328 168.766H12.4219L11.625 168.977L10.125 168.133V168.086C10.5469 167.758 11.0273 167.539 11.5664 167.43C12.1055 167.32 12.625 167.18 13.125 167.008L13.1719 166.797H13.6641C14.1641 166.859 14.6641 166.953 15.1641 167.078C15.6641 167.203 16.1406 167.359 16.5938 167.547L16.8047 167.852L17.0859 168.016L17.4141 168.555H17.5078L17.6719 168.977L17.4609 169.141L16.875 169.727H16.7578L16.5469 170.477C16.2188 171.445 15.9922 172.438 15.8672 173.453C15.7422 174.469 15.6484 175.5 15.5859 176.547H15.4688C15.4688 176.828 15.4531 177.094 15.4219 177.344C15.3906 177.594 15.3516 177.844 15.3047 178.094H15.2109L15.0938 178.422L14.7891 178.469L14.5547 178.422C14.5234 178.484 14.4648 178.516 14.3789 178.516C14.293 178.516 14.2109 178.516 14.1328 178.516ZM11.1328 175.961L10.4297 175.258L10.3828 174.883L10.125 174.836L9.79688 174.93V175.047L9.21094 175.68H9.09375L9.04688 176.055L9.67969 176.102L11.1328 175.961ZM8.55469 175.352L9.04688 175.094V174.977C9.40625 174.664 9.69141 174.301 9.90234 173.887C10.1133 173.473 10.3281 173.07 10.5469 172.68L10.7578 171.977H10.2188L7.875 172.141L7.05469 171.93V172.094C7.16406 172.344 7.23828 172.602 7.27734 172.867C7.31641 173.133 7.35156 173.414 7.38281 173.711L7.5 173.758C7.60938 174.039 7.65234 174.34 7.62891 174.66C7.60547 174.98 7.61719 175.289 7.66406 175.586H7.75781L8.55469 175.352ZM12.9609 174.93V174.086L13.0078 173.102L12.9141 172.586L12.5859 172.516L11.8359 173.055L10.7109 174.227C11.0234 174.445 11.3789 174.602 11.7773 174.695C12.1758 174.789 12.5703 174.867 12.9609 174.93Z" fill="white"/>
<path d="M4.6875 210.516L4.57031 210.469L4.52344 210.234C4.41406 210.266 4.3125 210.246 4.21875 210.176C4.125 210.105 4.04688 210.055 3.98438 210.023V209.906L3.82031 209.859C3.67969 209.234 3.59766 208.598 3.57422 207.949C3.55078 207.301 3.5 206.672 3.42188 206.062H3.32812C3.10938 206.453 2.85156 206.824 2.55469 207.176C2.25781 207.527 1.98438 207.891 1.73438 208.266L1.57031 208.312L0.632812 207.586L0.609375 207.047C0.75 206.828 0.859375 206.582 0.9375 206.309C1.01562 206.035 1.07812 205.766 1.125 205.5H1.21875L1.33594 204.797H1.45312C1.53125 204.062 1.65625 203.355 1.82812 202.676C2 201.996 2.17969 201.305 2.36719 200.602C1.94531 200.492 1.53516 200.352 1.13672 200.18C0.738281 200.008 0.359375 199.812 0 199.594V199.547L0.164062 199.312H0.28125L0.585938 199.383L4.14844 197.578C4.21094 197.25 4.25781 196.906 4.28906 196.547C4.32031 196.188 4.33594 195.828 4.33594 195.469L4.21875 195.258L4.28906 195.094L4.125 194.648C4.23438 194.508 4.28125 194.348 4.26562 194.168C4.25 193.988 4.24219 193.805 4.24219 193.617C4.25781 193.367 4.21094 193.125 4.10156 192.891C3.99219 192.656 3.95312 192.398 3.98438 192.117H4.05469L4.3125 192.281L5.08594 193.055V193.172L5.64844 193.594C5.78906 193.734 5.90625 193.895 6 194.074C6.09375 194.254 6.14062 194.453 6.14062 194.672C6 194.969 5.89844 195.289 5.83594 195.633C5.77344 195.977 5.71875 196.328 5.67188 196.688C5.96875 196.797 6.27344 196.883 6.58594 196.945C6.89844 197.008 7.1875 197.125 7.45312 197.297V197.367L7.125 197.531V197.672H7.00781L6.96094 197.953L6.63281 198.07V198.164H6.46875L6.42188 198.328L6.25781 198.305V198.422L5.46094 198.914C5.28906 199.602 5.15234 200.309 5.05078 201.035C4.94922 201.762 4.83594 202.469 4.71094 203.156H4.875V203.039H4.99219V202.945L5.71875 202.242H5.83594L7.07812 200.836H7.17188V200.719L7.28906 200.672C6.63281 201.562 5.9375 202.438 5.20312 203.297C4.46875 204.156 4.20312 205.219 4.40625 206.484C4.46875 207.141 4.56641 207.777 4.69922 208.395C4.83203 209.012 4.89844 209.664 4.89844 210.352L4.78125 210.516H4.6875ZM14.1328 210.094L13.2656 209.414L13.125 209.273L13.0781 208.781L13.2422 208.125L13.2891 205.805C13.2891 205.07 13.2539 204.344 13.1836 203.625C13.1133 202.906 12.8516 202.273 12.3984 201.727L12.2344 201.68L11.9297 202.102H11.8125L11.7422 202.383L11.1328 203.18H11.0391C11.0391 203.32 10.9688 203.453 10.8281 203.578C10.6875 203.703 10.5859 203.836 10.5234 203.977L10.3594 204.047L10.2188 204.375L9.72656 204.891H9.63281L9.35156 205.312L8.78906 205.922L8.85938 205.688H8.8125L8.67188 205.852H8.46094V206.016C8.32031 206.125 8.16797 206.211 8.00391 206.273C7.83984 206.336 7.67188 206.367 7.5 206.367V206.32L7.80469 206.203L7.92188 205.992L8.39062 205.758L8.60156 205.359L8.76562 205.312L9.70312 203.789L10.3594 202.945L10.4062 202.734H10.5234L10.8984 201.984L11.1094 201.914V201.82H11.0625V201.773L11.3203 201.094C10.9922 200.984 10.6523 200.918 10.3008 200.895C9.94922 200.871 9.61719 200.82 9.30469 200.742C9.61719 200.633 9.95312 200.555 10.3125 200.508C10.6719 200.461 11.0312 200.453 11.3906 200.484L11.6484 200.555L11.8359 200.508C12.0859 199.867 12.3594 199.238 12.6562 198.621C12.9531 198.004 13.2188 197.375 13.4531 196.734H13.2891C12.8984 196.906 12.5156 197.09 12.1406 197.285C11.7656 197.48 11.3438 197.578 10.875 197.578C10.4688 197.469 10.1055 197.32 9.78516 197.133C9.46484 196.945 9.14062 196.719 8.8125 196.453L8.71875 196.242H8.97656C9.16406 196.32 9.35547 196.367 9.55078 196.383C9.74609 196.398 9.95312 196.414 10.1719 196.43L14.0625 194.695L14.1328 194.414L14.2969 194.367L14.4609 194.039H14.5547L15.0938 194.156V194.039H15.2109C15.5391 194.164 15.8633 194.27 16.1836 194.355C16.5039 194.441 16.8281 194.547 17.1562 194.672L17.2031 194.836H17.3203V194.953H17.4375V195.07L16.875 195.305V195.422L16.7109 195.586L16.4297 195.68L16.3125 195.914H16.2188V196.078H16.1016L15.9375 196.336L15.7734 196.383C15.8203 196.461 15.8164 196.527 15.7617 196.582C15.707 196.637 15.6406 196.664 15.5625 196.664V196.945L15.3281 197.25L15.2109 197.227V197.391H15.1172V197.555L14.8359 197.672L13.5234 199.781L13.4531 199.758L13.0781 200.344H12.9609L12.8438 200.742H12.7734V200.836C13.0703 200.945 13.3633 201.098 13.6523 201.293C13.9414 201.488 14.2109 201.711 14.4609 201.961L14.6484 202.453H14.7656C14.9062 202.75 14.9766 203.078 14.9766 203.438C14.9766 203.797 14.9688 204.156 14.9531 204.516H15.0234V204.633L14.6953 208.148C14.7266 208.43 14.7578 208.715 14.7891 209.004C14.8203 209.293 14.8906 209.57 15 209.836L14.1328 210.094ZM1.96875 206.133L3.35156 204.656L3.60938 204.375L3.77344 204.281L4.00781 200.297H3.89062C3.48438 201.25 3.10938 202.211 2.76562 203.18C2.42188 204.148 2.11719 205.133 1.85156 206.133L1.89844 206.203L1.96875 206.133ZM3.79688 206.156V206.062L3.77344 205.57H3.65625L3.49219 205.898L3.79688 206.156ZM17.9297 205.641C18.1172 205.391 18.293 205.152 18.457 204.926C18.6211 204.699 18.7188 204.445 18.75 204.164C18.5469 203.93 18.3359 203.695 18.1172 203.461C17.8984 203.227 17.6641 203.055 17.4141 202.945L17.0859 202.734C17.3047 202.625 17.5508 202.559 17.8242 202.535C18.0977 202.512 18.375 202.5 18.6562 202.5C19.0625 202.625 19.4453 202.762 19.8047 202.91C20.1641 203.059 20.5234 203.25 20.8828 203.484V203.578H21.0469V203.742L21.2578 203.789L21.4688 204.234H21.5156L21.5625 204.398L21.3516 204.656C20.7422 204.719 20.1484 204.82 19.5703 204.961C18.9922 205.102 18.4453 205.328 17.9297 205.641Z" fill="white"/>
<path d="M9.25781 234.922L7.80469 234.102L7.64062 233.656H7.71094V233.469L7.64062 232.391C7.6875 232.031 7.80469 231.684 7.99219 231.348C8.17969 231.012 8.42188 230.695 8.71875 230.398L8.97656 230.305C9.10156 230.555 9.26953 230.68 9.48047 230.68C9.69141 230.68 9.91406 230.68 10.1484 230.68L10.875 230.586L12.2344 231.125C12.4062 231.297 12.5234 231.504 12.5859 231.746C12.6484 231.988 12.6797 232.266 12.6797 232.578L12.2344 233.375L10.6172 234.008L10.875 233.117C10.8125 232.805 10.7539 232.5 10.6992 232.203C10.6445 231.906 10.5234 231.633 10.3359 231.383L9.60938 231.219L9.51562 231.664C9.34375 231.602 9.18359 231.633 9.03516 231.758C8.88672 231.883 8.75 232 8.625 232.109L8.4375 233.281C8.625 233.469 8.79297 233.637 8.94141 233.785C9.08984 233.934 9.28125 233.977 9.51562 233.914L9.79688 233.656L9.89062 233.914L10.2422 234.102V234.289H10.3359V234.383L9.79688 234.734C9.79688 234.859 9.73828 234.922 9.62109 234.922C9.50391 234.922 9.38281 234.922 9.25781 234.922ZM8.27344 234.195L7.64062 233.656V233.82L8.17969 234.289L8.27344 234.195Z" fill="white"/>
<path d="M36.2266 17.3203C35.7891 17.2109 35.3555 17.1094 34.9258 17.0156C34.4961 16.9219 34.1016 16.75 33.7422 16.5V16.4062L33.2266 16.0312L33.1562 15.75H33.3672C33.7734 15.9688 34.1992 16.1406 34.6445 16.2656C35.0898 16.3906 35.5625 16.4375 36.0625 16.4062C36.3438 16.3281 36.6289 16.2539 36.918 16.1836C37.207 16.1133 37.5078 16.0938 37.8203 16.125L38.1484 16.1953C39.2578 15.6484 40.418 15.2344 41.6289 14.9531C42.8398 14.6719 44.0859 14.5469 45.3672 14.5781C45.9766 14.6094 46.543 14.6992 47.0664 14.8477C47.5898 14.9961 48.1016 15.2109 48.6016 15.4922L48.7422 15.9609C48.3516 16.1797 47.9258 16.2891 47.4648 16.2891C47.0039 16.2891 46.5938 16.3984 46.2344 16.6172V16.5703H46.1172V16.5H46.0234C45.8828 16.5781 45.75 16.6523 45.625 16.7227C45.5 16.793 45.3672 16.8281 45.2266 16.8281L45.1094 17.0391L44.7812 17.25L44.9922 16.9453H45.1094C45.2812 16.6484 45.4219 16.3398 45.5312 16.0195C45.6406 15.6992 45.7344 15.3828 45.8125 15.0703L43.6562 14.9531C43.0469 15.0312 42.4492 15.1562 41.8633 15.3281C41.2773 15.5 40.75 15.8047 40.2812 16.2422C40.2188 16.3516 40.1406 16.4688 40.0469 16.5938C39.9531 16.7188 39.9297 16.8516 39.9766 16.9922H39.4375C39.0469 16.9141 38.6523 16.8242 38.2539 16.7227C37.8555 16.6211 37.4766 16.4922 37.1172 16.3359L36.7422 16.7109L36.6016 16.8281L36.4844 17.3203H36.2266ZM40.2812 14.5312L39.6016 13.5L39.4844 13.4531V13.3359L39.5312 13.2422L39.9766 13.0781C40.1484 12.8594 40.2617 12.6094 40.3164 12.3281C40.3711 12.0469 40.3984 11.7422 40.3984 11.4141C40.3203 11.1328 40.2812 10.8398 40.2812 10.5352C40.2812 10.2305 40.2656 9.91406 40.2344 9.58594C40.2344 9.44531 40.2695 9.32422 40.3398 9.22266C40.4102 9.12109 40.4844 9.01562 40.5625 8.90625L40.8672 8.57812V8.32031C40.8047 8.24219 40.7383 8.17578 40.668 8.12109C40.5977 8.06641 40.5078 8.05469 40.3984 8.08594C40.1172 8.38281 39.8125 8.63672 39.4844 8.84766C39.1562 9.05859 38.8359 9.28906 38.5234 9.53906C38.3828 9.67969 38.2148 9.76953 38.0195 9.80859C37.8242 9.84766 37.6172 9.86719 37.3984 9.86719L36.8594 9.44531V9.32812H36.7422L36.6953 8.95312H36.8594L37.1875 9C37.5469 8.82812 37.9023 8.64453 38.2539 8.44922C38.6055 8.25391 38.9609 8.03125 39.3203 7.78125L39.3672 7.66406L39.8125 7.40625L39.8594 7.24219L40.2812 7.07812V6.91406L40.7266 6.82031L40.7734 6.375H40.6094C40.3906 6.48438 40.1836 6.58594 39.9883 6.67969C39.793 6.77344 39.5703 6.79688 39.3203 6.75V6.49219H39.2266V6.375H38.9922V6.49219L39.1094 7.07812L38.3594 7.45312L38.0312 7.28906V7.19531C37.9219 7.08594 37.8789 6.93359 37.9023 6.73828C37.9258 6.54297 37.9375 6.35156 37.9375 6.16406C37.9688 5.80469 38.0117 5.4375 38.0664 5.0625C38.1211 4.6875 38.2031 4.32031 38.3125 3.96094H38.4062L38.4766 4.24219L38.6172 4.28906C38.7734 4.57031 38.8672 4.875 38.8984 5.20312C38.9297 5.53125 38.9453 5.85156 38.9453 6.16406H39.0625C39.3438 6.05469 39.6016 5.90234 39.8359 5.70703C40.0703 5.51172 40.2891 5.28906 40.4922 5.03906L40.6094 4.82812L40.8672 4.61719L41.1484 4.03125H40.9375L39.2266 4.33594V4.28906C39.3984 4.03906 39.6016 3.84375 39.8359 3.70312C40.0703 3.5625 40.3125 3.42188 40.5625 3.28125C40.7656 3.20312 40.9766 3.15625 41.1953 3.14062C41.4141 3.125 41.6328 3.11719 41.8516 3.11719C42.1328 3.14844 42.4062 3.19922 42.6719 3.26953C42.9375 3.33984 43.1641 3.46875 43.3516 3.65625C43.4453 3.71875 43.5039 3.80469 43.5273 3.91406C43.5508 4.02344 43.5625 4.13281 43.5625 4.24219C43.4219 4.49219 43.2344 4.67969 43 4.80469C42.7656 4.92969 42.5547 5.10156 42.3672 5.32031H42.1562V5.46094C42.2969 5.46094 42.4219 5.48047 42.5312 5.51953C42.6406 5.55859 42.75 5.63281 42.8594 5.74219L42.9062 5.83594H42.9766V5.95312L42.9062 6.07031L42.4844 6.375L42.2734 6.44531V6.53906L41.9453 6.82031L41.7812 6.86719L41.7344 7.03125L42.6484 7.33594V7.45312L42.9062 7.57031L42.9766 7.78125C42.8203 7.92188 42.6719 8.02734 42.5312 8.09766C42.3906 8.16797 42.25 8.25781 42.1094 8.36719L41.7344 8.69531H41.5703C41.3984 8.89844 41.2852 9.14453 41.2305 9.43359C41.1758 9.72266 41.1484 10.0078 41.1484 10.2891L41.2422 11.9062L41.1953 12.5859L41.3125 13.4062C41.2344 13.5469 41.1953 13.6875 41.1953 13.8281C41.1953 13.9688 41.1094 14.0938 40.9375 14.2031L40.2812 14.5312ZM35.1016 4.40625C34.8516 4.35938 34.625 4.27344 34.4219 4.14844C34.2188 4.02344 34.0156 3.91406 33.8125 3.82031V3.75L33.9766 3.58594H34.1875L35.1016 3.70312C36.6953 3.23438 38.2969 2.8125 39.9062 2.4375C41.5156 2.0625 43.1406 1.71875 44.7812 1.40625L47.3594 1.875V2.03906L47.5703 2.08594V2.25L47.4062 2.32031L46.6094 2.20312C46.5 2.28125 46.3828 2.32031 46.2578 2.32031C46.1328 2.32031 46 2.32031 45.8594 2.32031L45.2266 2.25C44.9297 2.25 44.6484 2.27734 44.3828 2.33203C44.1172 2.38672 43.875 2.50781 43.6562 2.69531V2.57812H43.7734V2.36719H43.2812C41.8594 2.33594 40.5312 2.61328 39.2969 3.19922C38.0625 3.78516 36.75 4.14844 35.3594 4.28906V4.40625H35.1016ZM39.5312 1.94531V1.71094L39.2734 1.24219L38.9922 1.07812V0.960938L38.5703 0.75V0.65625L38.0312 0.210938L37.9844 0H38.3594C38.7188 0.109375 39.0859 0.210938 39.4609 0.304688C39.8359 0.398438 40.1797 0.53125 40.4922 0.703125V0.820312H40.6094L40.9375 1.28906C40.75 1.25781 40.5938 1.27734 40.4688 1.34766C40.3438 1.41797 40.2266 1.50781 40.1172 1.61719L40.0703 1.71094L39.8594 1.78125V1.71094H39.7422L39.5312 1.94531Z" fill="white"/>
<path d="M40.8203 50.7031V50.6562C40.6953 50.5469 40.5977 50.4336 40.5273 50.3164C40.457 50.1992 40.4297 50.0781 40.4453 49.9531L40.2109 49.8828L39.9766 49.1328L40.0703 48.8281H39.9062V48.5938C39.9688 48.3125 40.0156 48.0156 40.0469 47.7031C40.0781 47.3906 40.0938 47.0859 40.0938 46.7891L39.9766 45.1719L40.0234 44.9844L39.9766 44.375L40.0234 44.2344L39.9531 43.625H39.6719L38.3594 44L37.9141 44.0234L37.7031 44.1172C37.1875 44.3828 36.6641 44.625 36.1328 44.8438C35.6016 45.0625 35.0703 45.3203 34.5391 45.6172C34.4766 45.3828 34.4297 45.1406 34.3984 44.8906C34.3672 44.6406 34.3203 44.4062 34.2578 44.1875L34.3047 44.0703H34.3984L34.4922 43.9297L34.7031 43.7891V43.6953C35.2188 43.6641 35.6562 43.4844 36.0156 43.1562C36.375 42.8281 36.7578 42.5469 37.1641 42.3125L37.2344 42.1953L38.4766 41.2812L39.3203 40.3438L39.2031 40.3203C38.9062 40.4922 38.5938 40.6055 38.2656 40.6602C37.9375 40.7148 37.5781 40.7266 37.1875 40.6953L37 40.6484L36.7891 39.6172L36.8359 39.4531L36.7891 39.2188L37.0938 38.7734L38.7344 37.3438H38.5L37.4453 37.7422L37.375 37.8125L36.5312 38C36.3906 37.8125 36.3125 37.5742 36.2969 37.2852C36.2812 36.9961 36.2812 36.7266 36.2969 36.4766L36.4609 36.125L36.5312 35.9609H36.6719L36.8594 35.6797L37.3516 35.4453L37.375 35.3047C37.1094 34.9297 36.8789 34.5586 36.6836 34.1914C36.4883 33.8242 36.3594 33.4297 36.2969 33.0078L36.1797 32.9609V32.9141H36.625L37.5156 33.3125L37.5625 33.5234H37.6797V33.6641L37.7969 33.7578L37.7266 33.9688C37.7578 34.1562 37.8008 34.3438 37.8555 34.5312C37.9102 34.7188 37.9688 34.9141 38.0312 35.1172L38.2188 35.1406L39.5547 34.3438C39.7422 34.5625 39.9375 34.7266 40.1406 34.8359C40.3438 34.9453 40.5547 35.0469 40.7734 35.1406L40.8203 35.2578H40.9844C41.2188 35.2109 41.4609 35.1641 41.7109 35.1172C41.9609 35.0703 42.1953 35 42.4141 34.9062L42.5312 34.7422L43.0469 34.625L43.1875 34.8125L44.1953 35.3047L44.2188 35.4922L44.1719 35.6094C44.2969 35.7031 44.375 35.7891 44.4062 35.8672C44.4375 35.9453 44.4375 36.0312 44.4062 36.125L44.125 36.6172C43.8125 36.6797 43.5 36.7227 43.1875 36.7461C42.875 36.7695 42.5625 36.8281 42.25 36.9219L42.2031 37.1328L42.3203 37.3203H42.3672V37.5781L42.1328 37.7891L41.9922 37.7188L41.8281 38.0234C41.9531 38.1172 42.0781 38.1953 42.2031 38.2578C42.3281 38.3203 42.4688 38.3672 42.625 38.3984L42.7656 39.2188L42.4844 39.6406H42.3672V39.7578L41.875 40.0859C41.8594 40.3828 41.8086 40.6562 41.7227 40.9062C41.6367 41.1562 41.6016 41.4297 41.6172 41.7266L41.8281 41.7969C42.4219 41.6562 43.0312 41.5547 43.6562 41.4922C44.2812 41.4297 44.8672 41.2734 45.4141 41.0234L45.4609 40.8594H45.5781C45.875 41.0312 46.1836 41.1719 46.5039 41.2812C46.8242 41.3906 47.1562 41.4844 47.5 41.5625L47.4766 41.6797H47.2891V41.7969L47.6641 42.0547V42.125H47.7344H47.6641V42.2891H47.8047V42.3828H47.6172V42.5H47.3828V42.6172H47.1719L47.1484 42.875L47.3594 42.9453V42.9922H47.0781L45.9766 42.9219L45.6484 42.9688H45.6953V42.8516H45.4844L45.1562 42.8984V42.8281H44.9219L44.0312 42.9219V42.875H43.7969L43.1406 43.0156H43.2109V42.9219H42.9297L42.3672 43.1328V43.0859H42.0859V43.1797H42.2031L41.7344 43.2734L41.6875 43.1328L41.5938 43.1094V43.25H41.2656V43.3672H41.125L41.1016 44.1875L41.1484 44.5391L41.0781 45.6875L41.2891 49.5312L41.2422 49.6719L41.2891 50L40.8203 50.7031ZM36.4375 43.4609L39.9766 42.1953L40.0234 41.9844L39.8359 41.9141C39.8984 41.7422 39.8945 41.6094 39.8242 41.5156C39.7539 41.4219 39.7188 41.3047 39.7188 41.1641H39.6016L39.5312 41.2578C39.1719 41.3516 38.832 41.5117 38.5117 41.7383C38.1914 41.9648 37.8594 42.1562 37.5156 42.3125V42.4062C37.2812 42.5 37.0703 42.625 36.8828 42.7812C36.6953 42.9375 36.4922 43.0859 36.2734 43.2266L36.0391 43.3672L35.9922 43.6016H36.1094L36.4375 43.4609ZM38.7109 38.8672L38.5234 38.8203L38.5 39.0781H38.6406L39.9062 38.6562V38.4688L39.8594 38.3047H39.7656V38.2812H39.5781L38.7578 38.7031V38.8672H38.7109ZM41.4297 34.8828C41.7891 34.4453 42.0977 33.9688 42.3555 33.4531C42.6133 32.9375 42.8125 32.3984 42.9531 31.8359L42.4844 31.6484V31.6016L42.7656 31.2266L43.1641 31.1562C43.3828 31.2969 43.6289 31.3945 43.9023 31.4492C44.1758 31.5039 44.4219 31.5938 44.6406 31.7188L44.8516 32.1875L44.9688 32.2109L45.1797 32.8672L45.1094 32.9609H45.0156L44.8516 32.9141L44.7812 33.3594L44.4531 33.4062L43.9844 33.3359L43.7734 33.4297V33.5469L43.2109 33.6406L43.1172 33.8281L42.6484 33.9688L42.4609 34.1562L41.8516 34.5078L41.7578 34.7422L41.4297 34.8828Z" fill="white"/>
<path d="M41.0547 83.2188V83.0547C40.9141 82.4453 40.8281 81.8164 40.7969 81.168C40.7656 80.5195 40.7344 79.875 40.7031 79.2344L40.75 79.0234L40.5859 76.9609H40.2109C39.6484 77.0703 39.1055 77.1953 38.582 77.3359C38.0586 77.4766 37.4922 77.5312 36.8828 77.5L36.2969 77.0781L36.25 76.9141L36.0859 76.8203C36.8047 76.6328 37.5234 76.4609 38.2422 76.3047C38.9609 76.1484 39.6719 76 40.375 75.8594V75.5547C40.2344 75.3359 40.1484 75.1016 40.1172 74.8516C40.0859 74.6016 40 74.375 39.8594 74.1719L39.6953 74.125L39.6484 73.9609H39.5312C38.9688 74.1016 38.4141 74.2578 37.8672 74.4297C37.3203 74.6016 36.7812 74.7812 36.25 74.9688V75.0625C36.0469 75.0938 35.8555 75.1562 35.6758 75.25C35.4961 75.3438 35.3047 75.4219 35.1016 75.4844V75.6016L34.5625 75.6953L34.3984 75.6484L34.0938 74.9688H34.1406L34.4688 75.0625L35.7812 74.5469L35.8281 74.2188C36.25 74.0469 36.6641 73.8359 37.0703 73.5859C37.4766 73.3359 37.8906 73.1094 38.3125 72.9062L38.3594 72.7422H38.2656C38.2344 72.8047 38.1719 72.8477 38.0781 72.8711C37.9844 72.8945 37.9062 72.9062 37.8438 72.9062L37.6328 72.0625C37.6953 71.9531 37.7891 71.8789 37.9141 71.8398C38.0391 71.8008 38.1562 71.75 38.2656 71.6875L38.8984 71.2656V71.1484L39.2266 70.8438L39.4844 70.5859L39.7422 70.2578H39.5781L38.5234 70.5156C38.4141 70.4062 38.3516 70.2812 38.3359 70.1406C38.3203 70 38.2969 69.8594 38.2656 69.7188H38.1484V69.5781L38.3594 69.25L38.8984 69.0859L38.9453 68.9453L39.1562 68.8281L39.2266 68.6641L39.6484 68.2422H39.7422L39.8594 67.8203L38.8984 67.3047V67.2344L39.6484 67.1406C39.9297 67.1719 40.2188 67.2227 40.5156 67.293C40.8125 67.3633 41.0859 67.4531 41.3359 67.5625V67.6562L41.5469 67.7734L41.5938 67.9375L41.7578 67.9844L41.8047 68.3125C41.6016 68.4062 41.3906 68.4805 41.1719 68.5352C40.9531 68.5898 40.7422 68.6875 40.5391 68.8281V68.9453L40.375 69.1562H40.5391L41.5 68.9453C41.7031 69.0859 41.918 69.1797 42.1445 69.2266C42.3711 69.2734 42.5781 69.4062 42.7656 69.625L42.8125 69.9297L41.0078 70.8438L40.9609 71.0078H41.1719C41.3906 70.9609 41.5938 70.9023 41.7812 70.832C41.9688 70.7617 42.1719 70.6953 42.3906 70.6328L42.5547 70.7969C42.7578 70.8594 42.957 70.918 43.1523 70.9727C43.3477 71.0273 43.5156 71.1406 43.6562 71.3125L43.7734 71.5703C43.1641 71.6484 42.5977 71.8008 42.0742 72.0273C41.5508 72.2539 41.0391 72.4922 40.5391 72.7422V72.8359H40.7969L43.7734 72.4141L43.8203 72.2031C43.9297 72.1406 44.0352 72.0664 44.1367 71.9805C44.2383 71.8945 44.3594 71.8672 44.5 71.8984C44.8125 72.1016 45.1836 72.2305 45.6133 72.2852C46.043 72.3398 46.4297 72.4375 46.7734 72.5781V72.7422L47.1016 72.7891V72.9062H47.1953V73.0703L46.3516 73.1641V73.3281C45.5391 73.3281 44.7461 73.3711 43.9727 73.457C43.1992 73.543 42.4219 73.625 41.6406 73.7031L41.5469 73.6328L41.3828 73.7031V73.7969L42.0625 74.0547L42.1328 74.3828C42.0234 74.5234 41.9688 74.6719 41.9688 74.8281C41.9688 74.9844 41.9688 75.1484 41.9688 75.3203L42.1328 75.5547H42.4844L43.0703 75.4375L43.1172 75.2266H43.2344V75.0625H43.2812C43.6406 75.2344 44.0234 75.3398 44.4297 75.3789C44.8359 75.418 45.2109 75.5234 45.5547 75.6953V75.8125L45.8125 75.9062L46.0469 76.1172V76.2812C45.4062 76.4219 44.7578 76.5117 44.1016 76.5508C43.4453 76.5898 42.8047 76.6797 42.1797 76.8203L41.9219 78.1797L41.9688 78.3438C41.8906 78.625 41.8359 78.9062 41.8047 79.1875C41.7734 79.4688 41.7578 79.75 41.7578 80.0312L41.8047 80.1953L41.6406 80.9922L41.7109 81.1562C41.6328 81.4688 41.5859 81.8008 41.5703 82.1523C41.5547 82.5039 41.4922 82.8359 41.3828 83.1484L41.0547 83.2188ZM34.3516 70.3516C34.1016 70.1797 33.9062 69.9805 33.7656 69.7539C33.625 69.5273 33.4688 69.3047 33.2969 69.0859V68.875L33.5078 68.7344C33.6172 68.4531 33.6953 68.1523 33.7422 67.832C33.7891 67.5117 33.8125 67.1953 33.8125 66.8828L33.7188 66.5078H33.7656L34.0469 66.6719V66.7656L34.8906 67.4453L34.9375 67.6094L35.1953 67.7734C35.3047 67.8828 35.3672 68.0156 35.3828 68.1719C35.3984 68.3281 35.4062 68.4922 35.4062 68.6641C35.375 68.8828 35.3242 69.0977 35.2539 69.3086C35.1836 69.5195 35.1641 69.75 35.1953 70L35.2422 70.2578L34.3516 70.3516ZM44.2422 67.9375C44.4453 67.5781 44.6289 67.2148 44.793 66.8477C44.957 66.4805 45.0859 66.1016 45.1797 65.7109L42.6953 65.5938C42.2109 65.6719 41.7578 65.8086 41.3359 66.0039C40.9141 66.1992 40.4688 66.3828 40 66.5547V66.6719C39.7188 66.8125 39.4219 66.8906 39.1094 66.9062C38.7969 66.9219 38.4609 66.9297 38.1016 66.9297L37.4688 66.6016C37.7812 66.4609 38.1172 66.3477 38.4766 66.2617C38.8359 66.1758 39.2031 66.1172 39.5781 66.0859V65.9688C39.4062 65.5781 39.1367 65.2617 38.7695 65.0195C38.4023 64.7773 38.0547 64.5312 37.7266 64.2812L37.2578 63.6484H37.5859C38.0703 63.7266 38.5508 63.8359 39.0273 63.9766C39.5039 64.1172 39.9531 64.3047 40.375 64.5391V64.6562C40.4844 64.6562 40.5664 64.6914 40.6211 64.7617C40.6758 64.832 40.7188 64.9219 40.75 65.0312L40.9141 65.2891L40.4219 65.3828L40.375 65.5938L40.2109 65.6641V65.8281H40.4922C40.8047 65.7188 41.1289 65.6172 41.4648 65.5234C41.8008 65.4297 42.1406 65.3672 42.4844 65.3359H46.0469C46.2812 65.4453 46.5312 65.543 46.7969 65.6289C47.0625 65.7148 47.3203 65.8281 47.5703 65.9688L47.7344 66.2969L47.875 66.4609L47.8281 66.5547L47.3594 66.6016L46.8906 66.5547C46.6406 66.5859 46.418 66.6719 46.2227 66.8125C46.0273 66.9531 45.8203 67.0469 45.6016 67.0938L44.6641 67.8672L44.2422 67.9375Z" fill="white"/>
<path d="M41.1484 115.781C40.9922 114.25 40.8789 112.711 40.8086 111.164C40.7383 109.617 40.6328 108.07 40.4922 106.523L40.3281 106.477C40.0156 106.602 39.6953 106.723 39.3672 106.84C39.0391 106.957 38.7188 107.078 38.4062 107.203L38.1953 107.602L38.2656 107.812L37.9844 108.117L37.5625 108.094L36.8359 107.883C36.5391 108.008 36.2461 108.129 35.957 108.246C35.668 108.363 35.375 108.438 35.0781 108.469L34.9609 108.398L34.8672 108.047L33.9531 107.977L33.4375 108.023L32.5938 107.695V107.555H32.4766V107.438C33.3828 106.781 34.3516 106.32 35.3828 106.055C36.4141 105.789 37.3672 105.328 38.2422 104.672L38.3828 104.414H38.5938C38.8906 104.539 39.1875 104.656 39.4844 104.766C39.7812 104.875 40.125 104.914 40.5156 104.883L40.5391 103.969L40.4922 103.711L40.5625 103.031L40.5391 102.164H40.4219L39.8594 102.352V102.305L40.3047 101.766H40.1172C39.7422 101.844 39.375 101.93 39.0156 102.023C38.6562 102.117 38.2578 102.148 37.8203 102.117L37.3516 101.906L37.3047 101.695H37.2109L37.1172 101.227H36.9766V101.344H36.8594C36.75 101.547 36.6953 101.773 36.6953 102.023C36.6953 102.273 36.6172 102.492 36.4609 102.68C36.1484 102.93 35.8633 103.211 35.6055 103.523C35.3477 103.836 35.0625 104.109 34.75 104.344L34.4453 104.391V104.344C34.6172 103.875 34.7383 103.395 34.8086 102.902C34.8789 102.41 34.9453 101.906 35.0078 101.391L34.4219 100.477L34.2578 100.242L34.4453 99.9609L34.7969 99.6562C34.9062 99.4219 34.9727 99.1602 34.9961 98.8711C35.0195 98.582 35.0547 98.2969 35.1016 98.0156L34.8906 97.0547H35.2422L35.4531 97.1953C35.7656 97.4141 36.0703 97.6211 36.3672 97.8164C36.6641 98.0117 36.9688 98.2109 37.2812 98.4141L37.375 98.9297L37.6797 99.1406L37.8672 99.8203L37.6328 100.406L38.0312 100.43V100.5L37.9844 100.641H38.1016L39.8594 99.8906L40.2109 97.2188C40.2266 96.7344 40.1523 96.293 39.9883 95.8945C39.8242 95.4961 39.6953 95.0938 39.6016 94.6875H39.6719C40.0312 94.9844 40.4336 95.2188 40.8789 95.3906C41.3242 95.5625 41.7266 95.8047 42.0859 96.1172L42.3906 96.9609H42.5078L42.6484 98.2969L42.6016 98.5312L42.7656 99C43.0469 99.1406 43.3516 99.2578 43.6797 99.3516C44.0078 99.4453 44.3047 99.6172 44.5703 99.8672V99.9609L44.7344 100.008V100.266L44.3359 100.617L42.4609 101.25C42.3047 101.516 42.2227 101.82 42.2148 102.164C42.207 102.508 42.1875 102.828 42.1562 103.125L42.0625 103.102V103.266L42.0859 103.617L41.9688 104.18L42.0156 104.695L42.25 104.719C42.7188 104.578 43.1836 104.473 43.6445 104.402C44.1055 104.332 44.5547 104.25 44.9922 104.156L45.1328 103.688L45.5078 103.664C45.8828 103.867 46.2812 104.016 46.7031 104.109C47.125 104.203 47.5391 104.312 47.9453 104.438L47.9922 104.578L48.1094 104.625V104.742L48.2266 104.789L48.3438 105.586C48.2344 105.68 48.1133 105.754 47.9805 105.809C47.8477 105.863 47.6953 105.859 47.5234 105.797C47.0859 105.641 46.6094 105.535 46.0938 105.48C45.5781 105.426 45.0625 105.398 44.5469 105.398C44.1094 105.461 43.6719 105.527 43.2344 105.598C42.7969 105.668 42.3594 105.75 41.9219 105.844C41.8594 106.047 41.8164 106.277 41.793 106.535C41.7695 106.793 41.7422 107.039 41.7109 107.273L41.7578 107.367L41.6172 108.234L41.6875 108.867L41.6172 109.055L41.6641 109.969L41.5938 110.133L41.6406 111L41.5703 111.305L41.6172 111.398L41.5469 112.266L41.5938 112.477L41.5234 112.688L41.5703 114.352L41.3125 115.734L41.1484 115.781Z" fill="white"/>
<path d="M34.375 145.203C34.2969 145.094 34.207 145.012 34.1055 144.957C34.0039 144.902 33.875 144.875 33.7188 144.875V145.039H33.6719C33.4531 144.82 33.2188 144.656 32.9688 144.547C32.7188 144.438 32.4688 144.312 32.2188 144.172L31.9844 143.633L31.8203 143.586L31.5625 143.211C32.2031 143.211 32.8242 143.121 33.4258 142.941C34.0273 142.762 34.6328 142.633 35.2422 142.555V142.391C35.1641 142.281 35.1094 142.172 35.0781 142.062C35.0469 141.953 35.0312 141.844 35.0312 141.734L35.5234 141.242H35.6172C35.7266 140.633 35.8281 140.004 35.9219 139.355C36.0156 138.707 36.0781 138.055 36.1094 137.398L36.0625 137.023L36.1094 136.484L36.0625 136.203L36.1094 136.039C36.0781 135.148 36.0156 134.277 35.9219 133.426C35.8281 132.574 35.6016 131.773 35.2422 131.023L35.4062 130.953C35.5938 131.094 35.793 131.191 36.0039 131.246C36.2148 131.301 36.3984 131.422 36.5547 131.609C36.8359 131.891 37.0859 132.188 37.3047 132.5C37.5234 132.812 37.5938 133.18 37.5156 133.602L37.4219 134.375H37.3516L37.1875 136.32L37.2578 136.367C37.1797 137.352 37.0508 138.305 36.8711 139.227C36.6914 140.148 36.6016 141.109 36.6016 142.109L36.6484 142.227H37.0234C37.7578 142.086 38.4844 141.961 39.2031 141.852C39.9219 141.742 40.6641 141.672 41.4297 141.641L41.4766 141.734H41.7344V141.641L41.3125 141.031L41.0312 140.938L40.8672 140.117H40.9844V139.906L40.9375 139.742V139.789C41.0469 139.789 41.1094 139.836 41.125 139.93C41.1406 140.023 41.1875 140.102 41.2656 140.164L41.5234 140.539L41.7344 140.609C41.8906 139.953 41.9688 139.273 41.9688 138.57C41.9688 137.867 41.9844 137.172 42.0156 136.484L41.9688 136.273L42.0156 135.617C41.9844 134.961 41.9219 134.301 41.8281 133.637C41.7344 132.973 41.6562 132.312 41.5938 131.656L41.6406 131.398L41.5234 130.695H41.3125C41.0156 130.758 40.75 130.898 40.5156 131.117C40.2812 131.336 40.0234 131.461 39.7422 131.492L39.1328 131.281C39.0703 131.062 38.9922 130.844 38.8984 130.625C38.8047 130.406 38.7266 130.195 38.6641 129.992C39.1328 129.805 39.6094 129.641 40.0938 129.5C40.5781 129.359 41.0781 129.211 41.5938 129.055L41.6406 128.961L42.6016 128.891L42.6719 128.961L43.0469 128.891V128.844H43.0938C43.2812 129.031 43.4922 129.16 43.7266 129.23C43.9609 129.301 44.1875 129.406 44.4062 129.547L44.4531 129.711L44.6172 129.758V129.875L44.8984 129.992L44.9453 130.297H44.8281V130.461H44.2891L43.9609 130.367L43.8672 130.578L44.125 130.859V131.023H44.0312V131.117L43.7031 131.164L43.2578 133.016L43.3047 133.297L43.1641 133.344C43.0547 134.094 42.9805 134.875 42.9414 135.688C42.9023 136.5 42.8672 137.305 42.8359 138.102L43.1641 141.477H45.2031L45.4844 141.312L45.6484 141.359L45.9766 141.312C46.3047 141.484 46.6562 141.617 47.0312 141.711C47.4062 141.805 47.7734 141.938 48.1328 142.109L48.3438 142.672L48.5078 143.094L48.6719 143.211L48.2969 143.305L48.1328 143.258L47.7578 143.305L46.4688 143.047H43.9609L43.9141 143.094L43.6328 143.047C42.5547 143.109 41.4922 143.195 40.4453 143.305C39.3984 143.414 38.3906 143.594 37.4219 143.844V144.078H36.9766L36.7656 143.961C36.4062 143.992 36.0703 144.082 35.7578 144.23C35.4453 144.379 35.1484 144.562 34.8672 144.781L34.75 145.156L34.5391 145.203L34.4922 145.156L34.375 145.203ZM37.0938 141.078L37.0234 140.984C37.3516 140.578 37.668 140.18 37.9727 139.789C38.2773 139.398 38.5078 138.969 38.6641 138.5L38.2891 138.336C38.1797 138.117 38.0703 137.906 37.9609 137.703C37.8516 137.5 37.7734 137.273 37.7266 137.023L37.8438 136.812L38.3828 136.484L39.4141 134.539H39.0859L38.875 134.586C38.6875 134.555 38.5156 134.492 38.3594 134.398C38.2031 134.305 38.0312 134.227 37.8438 134.164L37.6328 133.836C37.9141 133.648 38.2266 133.52 38.5703 133.449C38.9141 133.379 39.2656 133.359 39.625 133.391L40.3281 133.672C40.4375 133.844 40.5391 134.02 40.6328 134.199C40.7266 134.379 40.7578 134.578 40.7266 134.797L40.2812 135.734H40.1641L39.6953 136.766C39.9766 136.859 40.2539 136.953 40.5273 137.047C40.8008 137.141 41.0625 137.281 41.3125 137.469L41.5234 138.008H41.6406V138.266L41.3594 138.336L41.2656 138.266L41.1953 138.336L41.1016 138.266L40.7734 138.383L40.7266 138.547L39.8594 138.922L39.625 139.203V139.133H39.5312L39.2969 139.25L39.1328 139.578L38.7578 139.906L38.5938 139.789L38.3828 139.953L38.1719 140.445L37.7266 140.609L37.5156 140.938L37.3516 140.984V141.031V140.938H37.2578L37.0938 141.078Z" fill="white"/>
<path d="M43.4922 178.844L43.1406 178.797V178.68C42.8906 178.758 42.7188 178.703 42.625 178.516C42.5312 178.328 42.4219 178.141 42.2969 177.953L42.0859 177.227H42.2031C42.4219 177.336 42.6641 177.41 42.9297 177.449C43.1953 177.488 43.4531 177.508 43.7031 177.508C43.8906 177.43 44.0781 177.371 44.2656 177.332C44.4531 177.293 44.625 177.18 44.7812 176.992C45.0781 176.508 45.293 175.996 45.4258 175.457C45.5586 174.918 45.6797 174.367 45.7891 173.805L45.7422 173.453L46.0703 170.078L45.5547 169.914C44.3672 169.992 43.2305 170.258 42.1445 170.711C41.0586 171.164 39.9688 171.578 38.875 171.953L38.8281 172.164H38.0781C38.0781 171.977 38.0508 171.809 37.9961 171.66C37.9414 171.512 37.875 171.359 37.7969 171.203H37.9141L38.0312 170.875L38.3594 170.758V170.641C38.6719 170.531 38.9766 170.383 39.2734 170.195C39.5703 170.008 39.8516 169.805 40.1172 169.586L40.1641 169.422H39.8828C39.7422 169.531 39.5859 169.594 39.4141 169.609C39.2422 169.625 39.0781 169.672 38.9219 169.75L38.4766 168.859L38.7109 168.461L38.9922 168.391V168.297C39.2891 168.25 39.5508 168.133 39.7773 167.945C40.0039 167.758 40.25 167.57 40.5156 167.383L40.7969 166.938H40.8906L41.9219 165.414H41.8047L41.0781 165.93L41.0078 166.258L39.8828 166.539V166.703L39.6016 166.82C38.7422 167.945 38.0508 169.137 37.5273 170.395C37.0039 171.652 36.4219 172.898 35.7812 174.133L35.4531 174.461V174.648L36.5078 174.977L36.6953 174.93L36.7891 174.578C37.9141 174.312 39.0039 173.938 40.0586 173.453C41.1133 172.969 42.2578 172.742 43.4922 172.773C43.7109 172.82 43.9219 172.891 44.125 172.984C44.3281 173.078 44.5234 173.18 44.7109 173.289L44.8281 173.898L44.5469 174.133C44.3594 174.211 44.1641 174.297 43.9609 174.391C43.7578 174.484 43.5625 174.547 43.375 174.578L42.9766 174.977L42.5781 175.258L42.3672 175.586H42.25V175.703L42.0859 175.773V175.703C42.2266 175.406 42.3438 175.09 42.4375 174.754C42.5312 174.418 42.6016 174.078 42.6484 173.734L42.5781 173.57L41.5703 173.523C41.2422 173.586 40.9375 173.676 40.6562 173.793C40.375 173.91 40.1016 174.078 39.8359 174.297L39.5547 174.695C39.3203 174.773 39.0938 174.82 38.875 174.836C38.6562 174.852 38.4297 174.898 38.1953 174.977L37.3047 174.859L37.0703 175.211H36.9766V175.305L37.1406 175.656L36.9766 175.773V175.938L36.625 175.984L36.1328 175.867L35.3828 175.938C35.2422 175.859 35.0859 175.766 34.9141 175.656C34.7422 175.547 34.5469 175.508 34.3281 175.539V175.656L32.6406 176.711V176.781L32.4766 176.664L32.0781 176.898L31.9609 176.828V176.781L32.3594 176.547C33.5625 175.094 34.6406 173.57 35.5938 171.977C36.5469 170.383 37.4531 168.742 38.3125 167.055H38.1484L36.6953 167.172L35.5 166.539H35.6641V166.422H35.6172V166.375H36.4141L37.3047 166.422L38.875 166.047C39.2812 165.141 39.7969 164.285 40.4219 163.48C41.0469 162.676 41.5078 161.805 41.8047 160.867L41.6406 160.586L42.25 160.469C42.5469 160.469 42.8281 160.516 43.0938 160.609C43.3594 160.703 43.6172 160.828 43.8672 160.984L43.9375 161.383L43.5391 162.227L42.9297 162.672C42.8203 162.969 42.6797 163.25 42.5078 163.516C42.3359 163.781 42.1406 164.023 41.9219 164.242L41.7344 164.289L41.2422 165.203H41.3594L42.7656 164.805V164.688H43.4922L44.5469 165.133L44.7109 165.695H44.5469L44.4297 165.977C44.1328 166.211 43.7969 166.391 43.4219 166.516C43.0469 166.641 42.6953 166.797 42.3672 166.984V167.102L42.0859 167.219V167.336L41.9219 167.383V167.5H42.0156C42.25 167.469 42.4492 167.406 42.6133 167.312C42.7773 167.219 42.9766 167.148 43.2109 167.102L43.2578 166.984H43.4219C43.7188 167.062 44 167.16 44.2656 167.277C44.5312 167.395 44.7969 167.523 45.0625 167.664L45.1797 168.227L43.8203 168.461V168.391H43.6562C43.5469 168.391 43.4336 168.422 43.3164 168.484C43.1992 168.547 43.0859 168.594 42.9766 168.625V168.742C42.6016 168.883 42.2461 169.047 41.9102 169.234C41.5742 169.422 41.2344 169.609 40.8906 169.797V169.914L39.2031 171.109V171.203H39.4375C40.4531 170.766 41.4844 170.367 42.5312 170.008C43.5781 169.648 44.6797 169.43 45.8359 169.352C46.3672 169.352 46.8594 169.445 47.3125 169.633C47.7656 169.82 48.2109 170.031 48.6484 170.266L48.8359 170.711L48.2734 170.922C47.6328 172.094 47.1797 173.336 46.9141 174.648C46.6484 175.961 46.1016 177.156 45.2734 178.234L45.1094 178.305L45.0625 178.469C44.8281 178.578 44.582 178.68 44.3242 178.773C44.0664 178.867 43.7891 178.891 43.4922 178.844ZM37.4219 165.086L36.6953 164.852L36.2969 164.922V164.969H36.2266L36.1328 164.688H35.9453L35.5 164.078L35.3359 164.008L34.8906 163.516V163.352L35.1719 162.789H35.3828C35.6953 162.852 35.9805 162.969 36.2383 163.141C36.4961 163.312 36.7969 163.414 37.1406 163.445L37.75 163.117V163.352H37.6328L37.3047 164.125L37.4219 164.688L37.3516 164.758L37.5156 165.086H37.4219Z" fill="white"/>
<path d="M40.3281 210.82C40.1406 210.68 39.9453 210.535 39.7422 210.387C39.5391 210.238 39.3594 210.07 39.2031 209.883L39.1094 209.438H39.1562L39.9766 209.766C40.1641 208.953 40.2578 208.113 40.2578 207.246C40.2578 206.379 40.2812 205.516 40.3281 204.656L40.2109 203.062H39.8828C39.3203 203.094 38.8086 203.203 38.3477 203.391C37.8867 203.578 37.3984 203.727 36.8828 203.836L36.8125 203.953C36.3438 203.984 35.9141 204.121 35.5234 204.363C35.1328 204.605 34.6953 204.703 34.2109 204.656C33.9453 204.547 33.6836 204.438 33.4258 204.328C33.168 204.219 32.9297 204.07 32.7109 203.883C33.2266 203.93 33.707 203.879 34.1523 203.73C34.5977 203.582 35.0625 203.469 35.5469 203.391V203.32C36.3281 203.211 37.0859 203.047 37.8203 202.828C38.5547 202.609 39.3359 202.461 40.1641 202.383V202.219L40.0938 202.008L39.8125 201.82L39.6016 201.656L39.5547 201.398L39.8828 201.328V201.211L39.3203 201.164L39.0391 200.32C39.2266 199.961 39.4414 199.594 39.6836 199.219C39.9258 198.844 40.1016 198.453 40.2109 198.047H40.0938L39.1562 198.281V198.492L39.2734 199.383L39.1094 199.453L38.9922 199.711H38.7109C38.6016 199.648 38.5078 199.57 38.4297 199.477C38.3516 199.383 38.2969 199.281 38.2656 199.172C38.1562 198.906 38.0742 198.625 38.0195 198.328C37.9648 198.031 37.8047 197.789 37.5391 197.602C37.3516 197.461 37.1758 197.316 37.0117 197.168C36.8477 197.02 36.7109 196.852 36.6016 196.664C37.0078 196.773 37.4141 196.922 37.8203 197.109C38.2266 197.297 38.6172 197.516 38.9922 197.766C39.2422 197.547 39.5156 197.383 39.8125 197.273C40.1094 197.164 40.4062 197.055 40.7031 196.945L41.4297 197.156L41.6641 197.391L41.8281 197.508L41.9219 195.492L41.5938 195.445C41.4062 195.523 41.2227 195.59 41.043 195.645C40.8633 195.699 40.6953 195.797 40.5391 195.938L40.4922 196.055L40.0938 196.172L39.8828 195.328L40.6094 194.672H40.7734L40.8203 194.883H40.9375C41.1562 194.773 41.375 194.699 41.5938 194.66C41.8125 194.621 42.0391 194.586 42.2734 194.555L43.2578 195L43.3281 195.211C43.3906 195.258 43.4336 195.309 43.457 195.363C43.4805 195.418 43.4922 195.484 43.4922 195.562L43.3281 195.609L43.2109 196.008H43.0938C43.0938 196.445 43.0391 196.859 42.9297 197.25C42.8203 197.641 42.7266 198.039 42.6484 198.445L42.7188 199.992L42.6016 200.227L42.2734 200.32V200.391L41.9922 200.508V200.602L41.8281 200.766C41.5938 200.891 41.3398 200.98 41.0664 201.035C40.793 201.09 40.5625 201.188 40.375 201.328L41.1484 201.609V201.891H41.2656V202.266H41.7578C42.5078 202.203 43.2617 202.125 44.0195 202.031C44.7773 201.938 45.5234 201.812 46.2578 201.656L47.2656 201.891V201.938L47.5938 202.008L47.7109 202.453L47.3125 202.5V202.617L46.2578 202.664L45.7188 202.617L42.9766 202.828L42.7656 202.781L41.1016 202.828V202.945L40.9375 203.062L40.8203 203.883L40.8672 204.727L40.8203 204.891L40.8672 205.945L40.8203 206.227L40.8672 206.391L40.8203 207L40.9375 207.328L40.8672 208.664L40.9375 208.828C40.8594 209.125 40.8203 209.43 40.8203 209.742C40.8203 210.055 40.8203 210.359 40.8203 210.656L40.3281 210.82ZM36.2031 207.891V207.82L35.8281 207.281L35.6641 207.211L35.4766 206.555L35.7109 205.781L35.6641 205.617L35.9922 205.547L36.5547 205.828L36.9297 206.719H36.9766L37.0469 207L36.8828 207.656L36.6016 207.773V207.727H36.4375V207.773V207.727H36.2734L36.2031 207.891ZM46.4922 207.492L45.8828 207.281L45.2734 206.883L44.8281 206.438C44.8281 206.297 44.7891 206.16 44.7109 206.027C44.6328 205.895 44.5234 205.773 44.3828 205.664L43.8672 205.219L43.7031 204.773H44.0547C44.3828 204.883 44.7031 204.992 45.0156 205.102C45.3281 205.211 45.6172 205.383 45.8828 205.617L46.4922 206.273V206.391H46.6094L46.6562 206.672L46.7734 206.719L46.8203 207.211L46.4922 207.328V207.492ZM33.7188 201.609L33.3672 201.211L33.3203 200.719C33.5391 200.344 33.7422 199.965 33.9297 199.582C34.1172 199.199 34.2656 198.805 34.375 198.398H34.2578L33.8125 198.891L33.3203 199.453H33.2031V199.547H33.1094L32.7109 198.656C33.0391 198.25 33.2891 197.816 33.4609 197.355C33.6328 196.895 33.7344 196.406 33.7656 195.891C33.6875 195.781 33.6133 195.652 33.543 195.504C33.4727 195.355 33.4375 195.203 33.4375 195.047H33.4844L33.9766 195.398L34.4219 195.938L34.4922 196.336L34.3281 196.945H34.2109L33.8828 197.883H33.9766L34.5391 197.391V197.273C34.6484 197.195 34.7695 197.129 34.9023 197.074C35.0352 197.02 35.1953 197.016 35.3828 197.062C35.5234 197.125 35.5859 197.23 35.5703 197.379C35.5547 197.527 35.5469 197.68 35.5469 197.836C35.25 198.242 34.9805 198.648 34.7383 199.055C34.4961 199.461 34.3047 199.883 34.1641 200.32H34.3281L34.6562 200.156V200.062L35.5938 199.336L35.875 199.266V199.383C35.5781 199.758 35.2734 200.148 34.9609 200.555C34.6484 200.961 34.2891 201.297 33.8828 201.562L33.7188 201.609ZM41.8281 200.156V200.109C41.7188 200 41.6523 199.871 41.6289 199.723C41.6055 199.574 41.5547 199.422 41.4766 199.266H41.7109L41.8281 197.602H41.5469V197.766C41.2812 197.922 41.0586 198.129 40.8789 198.387C40.6992 198.645 40.5156 198.906 40.3281 199.172C40.2188 199.391 40.0977 199.609 39.9648 199.828C39.832 200.047 39.7656 200.289 39.7656 200.555H39.8828C40.1797 200.477 40.4766 200.391 40.7734 200.297C41.0703 200.203 41.3828 200.156 41.7109 200.156L41.7578 200.227L41.8281 200.156ZM44.2656 199.945V199.898C44.1562 199.773 44.0742 199.629 44.0195 199.465C43.9648 199.301 43.9375 199.148 43.9375 199.008C44.1875 198.711 44.4141 198.414 44.6172 198.117C44.8203 197.82 44.9609 197.5 45.0391 197.156H44.9219L44.2656 197.508C44.1562 197.352 44.082 197.191 44.043 197.027C44.0039 196.863 43.9688 196.688 43.9375 196.5L44.1016 196.453C44.4297 196 44.707 195.543 44.9336 195.082C45.1602 194.621 45.3438 194.148 45.4844 193.664L45.4375 193.547L45.8125 193.5L46.1641 193.664L46.2109 194.438L45.9766 194.953L45.8125 195L45.7188 195.398L45.5547 195.492L45.3672 195.938H45.6016L45.9766 195.773V195.891C46.1328 195.844 46.2578 195.852 46.3516 195.914C46.4453 195.977 46.5469 196.023 46.6562 196.055L46.7734 196.453L46.4922 196.945L46.2578 196.992L46.1641 197.32H46.0469C45.9688 197.555 45.8359 197.762 45.6484 197.941C45.4609 198.121 45.3359 198.328 45.2734 198.562H45.4375L46.375 198.281V198.445H46.2578L46.0938 198.82L45.7656 199.008L45.6484 199.266C45.4297 199.422 45.2109 199.566 44.9922 199.699C44.7734 199.832 44.5312 199.914 44.2656 199.945ZM36.8125 199.898C36.5938 199.742 36.4297 199.555 36.3203 199.336C36.2109 199.117 36.0625 198.93 35.875 198.773V198.727L36.2734 198.609L36.8828 199.008L37.3281 199.5V199.617L37.0469 199.898H36.8125ZM47.2188 199.453L47.1016 199.383C47.1016 199.086 47.0547 198.816 46.9609 198.574C46.8672 198.332 46.7656 198.102 46.6562 197.883L46.9375 197.836L47.5938 198.281L47.9922 198.938H48.1094V199.055L47.9219 199.008L47.8281 199.336L47.2188 199.453ZM37.7734 195.773V195.656H37.8672C38.0234 195.188 38.1836 194.703 38.3477 194.203C38.5117 193.703 38.6328 193.188 38.7109 192.656L38.4297 192.117H38.5469C38.875 192.18 39.1953 192.297 39.5078 192.469C39.8203 192.641 40.1094 192.836 40.375 193.055L40.4219 193.266H40.5391V193.453L40.375 193.711L40.2578 193.992H40.1641L40.0938 194.227C39.875 194.227 39.6836 194.309 39.5195 194.473C39.3555 194.637 39.1562 194.719 38.9219 194.719V194.883L38.4297 195.164L37.9844 195.727L37.7734 195.773Z" fill="white"/>
<path d="M40.7266 235.109C40.8984 234.859 41.0586 234.617 41.207 234.383C41.3555 234.148 41.4297 233.883 41.4297 233.586H41.1484L40.4688 233.797L39.9531 233.586L39.8594 233.305L39.5312 233.234L38.9219 232.508V232.203L39.4375 231.266L39.8594 230.891H40.5625L41.7578 231.406C41.9922 231.703 42.1953 232.008 42.3672 232.32C42.5391 232.633 42.5703 232.984 42.4609 233.375L41.8516 234.734C41.6641 234.875 41.4727 234.957 41.2773 234.98C41.082 235.004 40.8984 235.047 40.7266 235.109Z" fill="white"/>
</svg>
